<svg xmlns="http://www.w3.org/2000/svg" viewBox="0 0 32 32">
  <linearGradient id="a" x1="6" x2="235" y1="33" y2="344" gradientTransform="translate(1.34 1.34) scale(.07142)" gradientUnits="userSpaceOnUse">
    <stop offset="0" stop-color="#41d1ff"/>
    <stop offset="1" stop-color="#bd34fe"/>
  </linearGradient>
  <linearGradient id="b" x1="194.651" x2="236.076" y1="8.818" y2="292.989" gradientTransform="translate(1.34 1.34) scale(.07142)" gradientUnits="userSpaceOnUse">
    <stop offset="0" stop-color="#ffea83"/>
    <stop offset=".083" stop-color="#ffdd35"/>
    <stop offset="1" stop-color="#ffa800"/>
  </linearGradient>
  <path fill="url(#a)" d="M30.28 4.77 17.14 27.92c-.46.82-1.67.95-2.28.24L1.34 13.65c-.47-.55-.25-1.45.43-1.68L28.8 3.13c.73-.24 1.47.46 1.47 1.24v.4Z"/>
  <path fill="url(#b)" d="m21.24 1.67-7.85 15.15c-.3.57.2 1.23.82 1.1l11.47-2.48c.65-.14.95-.92.54-1.4L21.94 8.8l4.07-6.4c.36-.56-.08-1.29-.75-1.29h-3.2c-.39 0-.75.2-.95.53l-.87 1.03Z"/>
</svg>
